<svg xmlns="http://www.w3.org/2000/svg" viewBox="0 0 512 512">
  <defs>
    <linearGradient id="g" x1="96" y1="64" x2="416" y2="448" gradientUnits="userSpaceOnUse">
      <stop stop-color="#14B8A6"/>
      <stop offset="1" stop-color="#0F766E"/>
    </linearGradient>
  </defs>
  <rect width="512" height="512" rx="112" fill="url(#g)"/>
  <path d="M144 352V160h84c48 0 80 24 80 62 0 26-14 44-38 54 30 10 48 34 48 66 0 44-36 70-90 70H144zm62-176h20c20 0 32-10 32-26s-12-24-32-24h-20v50zm0 116h24c24 0 38-10 38-28s-14-28-38-28h-24v56zM296 352l72-240h68l72 240h-64l-12-40h-72l-12 40h-64zm66-92h48l-24-76-24 76z" fill="#fff"/>
</svg>
